<svg width="1317" height="656" xmlns="http://www.w3.org/2000/svg"><g><path d="M-51.62488901987672,-36.57573005184531L-126.88973142765462,29.53038800507784L73.33462321199477,111.48673005402088Z" fill="#e64e58" stroke="#e64e58"></path><path d="M-51.62488901987672,-36.57573005184531L73.33462321199477,111.48673005402088L79.01318477466702,-59.189063077792525Z" fill="#ed4e58" stroke="#ed4e58"></path><path d="M79.01318477466702,-59.189063077792525L73.33462321199477,111.48673005402088L166.6652863752097,-59.7551135905087Z" fill="#f55a5a" stroke="#f55a5a"></path><path d="M79.01318477466702,-59.189063077792525L166.6652863752097,-59.7551135905087L400.4931435920298,-79.7403828240931Z" fill="#fd515b" stroke="#fd515b"></path><path d="M79.01318477466702,-59.189063077792525L400.4931435920298,-79.7403828240931L563.8439613673836,-96.74674945883453Z" fill="#fe6a6c" stroke="#fe6a6c"></path><path d="M166.6652863752097,-59.7551135905087L73.33462321199477,111.48673005402088L222.55521283484995,40.863028122112155Z" fill="#fa745d" stroke="#fa745d"></path><path d="M166.6652863752097,-59.7551135905087L222.55521283484995,40.863028122112155L400.4931435920298,-79.7403828240931Z" fill="#fe6c64" stroke="#fe6c64"></path><path d="M400.4931435920298,-79.7403828240931L222.55521283484995,40.863028122112155L344.01857268065214,118.26169758103788Z" fill="#fe976f" stroke="#fe976f"></path><path d="M400.4931435920298,-79.7403828240931L344.01857268065214,118.26169758103788L472.1715163439512,28.696843441575766Z" fill="#fea37a" stroke="#fea37a"></path><path d="M400.4931435920298,-79.7403828240931L472.1715163439512,28.696843441575766L563.8439613673836,-96.74674945883453Z" fill="#fe8580" stroke="#fe8580"></path><path d="M563.8439613673836,-96.74674945883453L472.1715163439512,28.696843441575766L631.6523264162242,-49.43876462057233Z" fill="#ff918b" stroke="#ff918b"></path><path d="M563.8439613673836,-96.74674945883453L631.6523264162242,-49.43876462057233L841.9012333173305,-105.84551475942135Z" fill="#f77d7d" stroke="#f77d7d"></path><path d="M631.6523264162242,-49.43876462057233L472.1715163439512,28.696843441575766L689.2900197207928,71.77928770892322Z" fill="#fdac8c" stroke="#fdac8c"></path><path d="M631.6523264162242,-49.43876462057233L689.2900197207928,71.77928770892322L841.9012333173305,-105.84551475942135Z" fill="#f4937d" stroke="#f4937d"></path><path d="M841.9012333173305,-105.84551475942135L689.2900197207928,71.77928770892322L791.5753442700952,99.30155474692583Z" fill="#eea97d" stroke="#eea97d"></path><path d="M841.9012333173305,-105.84551475942135L791.5753442700952,99.30155474692583L1014.9709895253181,32.010360499843955Z" fill="#d8997a" stroke="#d8997a"></path><path d="M841.9012333173305,-105.84551475942135L1014.9709895253181,32.010360499843955L988.4481555875391,-104.98630416579545Z" fill="#c97076" stroke="#c97076"></path><path d="M988.4481555875391,-104.98630416579545L1014.9709895253181,32.010360499843955L1109.690937353298,-96.17899526841938Z" fill="#b15f80" stroke="#b15f80"></path><path d="M1109.690937353298,-96.17899526841938L1014.9709895253181,32.010360499843955L1092.2464622743428,127.61357920244336Z" fill="#a87f89" stroke="#a87f89"></path><path d="M1109.690937353298,-96.17899526841938L1092.2464622743428,127.61357920244336L1249.5457293558866,81.29563889466226Z" fill="#927893" stroke="#927893"></path><path d="M1109.690937353298,-96.17899526841938L1249.5457293558866,81.29563889466226L1268.8016539625823,-75.88271358981729Z" fill="#824a95" stroke="#824a95"></path><path d="M1268.8016539625823,-75.88271358981729L1249.5457293558866,81.29563889466226L1386.2013304140419,60.19235126674175Z" fill="#7f51a2" stroke="#7f51a2"></path><path d="M1268.8016539625823,-75.88271358981729L1386.2013304140419,60.19235126674175L1479.3700403999537,-44.519936721771955Z" fill="#7f2ca7" stroke="#7f2ca7"></path><path d="M1479.3700403999537,-44.519936721771955L1386.2013304140419,60.19235126674175L1420.2421261835843,170.7857251726091Z" fill="#804bb2" stroke="#804bb2"></path><path d="M1479.3700403999537,-44.519936721771955L1420.2421261835843,170.7857251726091L1475.8717990480363,428.0050624720752Z" fill="#807fd2" stroke="#807fd2"></path><path d="M-126.88973142765462,29.53038800507784L-129.11266590468585,695.5522753950208L-23.051021369174123,317.994198538363Z" fill="#e18b87" stroke="#e18b87"></path><path d="M-126.88973142765462,29.53038800507784L-23.051021369174123,317.994198538363L-50.908601162955165,175.85200251080096Z" fill="#e38b75" stroke="#e38b75"></path><path d="M-126.88973142765462,29.53038800507784L-50.908601162955165,175.85200251080096L73.33462321199477,111.48673005402088Z" fill="#e77160" stroke="#e77160"></path><path d="M73.33462321199477,111.48673005402088L-50.908601162955165,175.85200251080096L75.6655606906861,253.59344959259033Z" fill="#eea279" stroke="#eea279"></path><path d="M73.33462321199477,111.48673005402088L75.6655606906861,253.59344959259033L222.04842581413686,194.01528432033956Z" fill="#f7b87e" stroke="#f7b87e"></path><path d="M73.33462321199477,111.48673005402088L222.04842581413686,194.01528432033956L222.55521283484995,40.863028122112155Z" fill="#fca168" stroke="#fca168"></path><path d="M222.55521283484995,40.863028122112155L222.04842581413686,194.01528432033956L344.01857268065214,118.26169758103788Z" fill="#feb673" stroke="#feb673"></path><path d="M344.01857268065214,118.26169758103788L222.04842581413686,194.01528432033956L360.03900705836713,200.72708850726485Z" fill="#fed98a" stroke="#fed98a"></path><path d="M344.01857268065214,118.26169758103788L360.03900705836713,200.72708850726485L472.1715163439512,28.696843441575766Z" fill="#ffd084" stroke="#ffd084"></path><path d="M472.1715163439512,28.696843441575766L360.03900705836713,200.72708850726485L493.42064081691206,249.96361962519586Z" fill="#ffe899" stroke="#ffe899"></path><path d="M472.1715163439512,28.696843441575766L493.42064081691206,249.96361962519586L689.2900197207928,71.77928770892322Z" fill="#ffdd9a" stroke="#ffdd9a"></path><path d="M689.2900197207928,71.77928770892322L493.42064081691206,249.96361962519586L707.5934607814997,256.43873244524Z" fill="#fbfeae" stroke="#fbfeae"></path><path d="M689.2900197207928,71.77928770892322L707.5934607814997,256.43873244524L791.5753442700952,99.30155474692583Z" fill="#f4e693" stroke="#f4e693"></path><path d="M791.5753442700952,99.30155474692583L707.5934607814997,256.43873244524L866.0245698597282,222.84514859318733Z" fill="#ebf7a1" stroke="#ebf7a1"></path><path d="M791.5753442700952,99.30155474692583L866.0245698597282,222.84514859318733L1014.9709895253181,32.010360499843955Z" fill="#d6ce88" stroke="#d6ce88"></path><path d="M1014.9709895253181,32.010360499843955L866.0245698597282,222.84514859318733L982.0874637644738,246.92537295632064Z" fill="#c9de98" stroke="#c9de98"></path><path d="M1014.9709895253181,32.010360499843955L982.0874637644738,246.92537295632064L1092.2464622743428,127.61357920244336Z" fill="#b4c096" stroke="#b4c096"></path><path d="M1092.2464622743428,127.61357920244336L982.0874637644738,246.92537295632064L1100.1224565971643,202.28061852045357Z" fill="#acd2ac" stroke="#acd2ac"></path><path d="M1092.2464622743428,127.61357920244336L1100.1224565971643,202.28061852045357L1249.5457293558866,81.29563889466226Z" fill="#94a8a4" stroke="#94a8a4"></path><path d="M1249.5457293558866,81.29563889466226L1100.1224565971643,202.28061852045357L1327.2299798112363,255.98260089755058Z" fill="#80acba" stroke="#80acba"></path><path d="M1249.5457293558866,81.29563889466226L1327.2299798112363,255.98260089755058L1420.2421261835843,170.7857251726091Z" fill="#8092c2" stroke="#8092c2"></path><path d="M1249.5457293558866,81.29563889466226L1420.2421261835843,170.7857251726091L1386.2013304140419,60.19235126674175Z" fill="#8070b0" stroke="#8070b0"></path><path d="M-50.908601162955165,175.85200251080096L-23.051021369174123,317.994198538363L75.6655606906861,253.59344959259033Z" fill="#ea9f8f" stroke="#ea9f8f"></path><path d="M75.6655606906861,253.59344959259033L-23.051021369174123,317.994198538363L31.454058531671762,377.1726161520928Z" fill="#eda591" stroke="#eda591"></path><path d="M75.6655606906861,253.59344959259033L31.454058531671762,377.1726161520928L191.79771437309682,402.7848798595369Z" fill="#f5b48c" stroke="#f5b48c"></path><path d="M75.6655606906861,253.59344959259033L191.79771437309682,402.7848798595369L222.04842581413686,194.01528432033956Z" fill="#fbc19e" stroke="#fbc19e"></path><path d="M222.04842581413686,194.01528432033956L191.79771437309682,402.7848798595369L367.24794840440154,334.65384299866855Z" fill="#fed6a1" stroke="#fed6a1"></path><path d="M222.04842581413686,194.01528432033956L367.24794840440154,334.65384299866855L360.03900705836713,200.72708850726485Z" fill="#fee3a3" stroke="#fee3a3"></path><path d="M360.03900705836713,200.72708850726485L367.24794840440154,334.65384299866855L493.42064081691206,249.96361962519586Z" fill="#fff2b5" stroke="#fff2b5"></path><path d="M493.42064081691206,249.96361962519586L367.24794840440154,334.65384299866855L553.5374097526073,316.8485850468278Z" fill="#fff8c0" stroke="#fff8c0"></path><path d="M493.42064081691206,249.96361962519586L553.5374097526073,316.8485850468278L707.5934607814997,256.43873244524Z" fill="#feffce" stroke="#feffce"></path><path d="M707.5934607814997,256.43873244524L553.5374097526073,316.8485850468278L679.6786030288786,422.9085357673466Z" fill="#fafdbc" stroke="#fafdbc"></path><path d="M707.5934607814997,256.43873244524L679.6786030288786,422.9085357673466L860.7065361645073,412.90223733522Z" fill="#f3faaa" stroke="#f3faaa"></path><path d="M707.5934607814997,256.43873244524L860.7065361645073,412.90223733522L866.0245698597282,222.84514859318733Z" fill="#e7f5ba" stroke="#e7f5ba"></path><path d="M866.0245698597282,222.84514859318733L860.7065361645073,412.90223733522L926.6755078174174,316.0044729709625Z" fill="#d8efb4" stroke="#d8efb4"></path><path d="M866.0245698597282,222.84514859318733L926.6755078174174,316.0044729709625L982.0874637644738,246.92537295632064Z" fill="#cfecb6" stroke="#cfecb6"></path><path d="M982.0874637644738,246.92537295632064L926.6755078174174,316.0044729709625L1163.7134667858481,362.54629097878933Z" fill="#b5d9be" stroke="#b5d9be"></path><path d="M982.0874637644738,246.92537295632064L1163.7134667858481,362.54629097878933L1100.1224565971643,202.28061852045357Z" fill="#a6cdc8" stroke="#a6cdc8"></path><path d="M1100.1224565971643,202.28061852045357L1163.7134667858481,362.54629097878933L1327.2299798112363,255.98260089755058Z" fill="#86b6d6" stroke="#86b6d6"></path><path d="M1327.2299798112363,255.98260089755058L1163.7134667858481,362.54629097878933L1235.341942794621,382.75902866385877Z" fill="#80add0" stroke="#80add0"></path><path d="M1327.2299798112363,255.98260089755058L1235.341942794621,382.75902866385877L1475.8717990480363,428.0050624720752Z" fill="#8097d6" stroke="#8097d6"></path><path d="M1327.2299798112363,255.98260089755058L1475.8717990480363,428.0050624720752L1420.2421261835843,170.7857251726091Z" fill="#808bee" stroke="#808bee"></path><path d="M-23.051021369174123,317.994198538363L-129.11266590468585,695.5522753950208L-30.4003229085356,474.01733030565083Z" fill="#ad8485" stroke="#ad8485"></path><path d="M-23.051021369174123,317.994198538363L-30.4003229085356,474.01733030565083L31.454058531671762,377.1726161520928Z" fill="#e39d82" stroke="#e39d82"></path><path d="M31.454058531671762,377.1726161520928L-30.4003229085356,474.01733030565083L35.604740185663104,506.6338964179158Z" fill="#cda181" stroke="#cda181"></path><path d="M31.454058531671762,377.1726161520928L35.604740185663104,506.6338964179158L191.79771437309682,402.7848798595369Z" fill="#deb083" stroke="#deb083"></path><path d="M191.79771437309682,402.7848798595369L35.604740185663104,506.6338964179158L244.8970346711576,500.60495493002236Z" fill="#d5bf84" stroke="#d5bf84"></path><path d="M191.79771437309682,402.7848798595369L244.8970346711576,500.60495493002236L367.24794840440154,334.65384299866855Z" fill="#f0d891" stroke="#f0d891"></path><path d="M367.24794840440154,334.65384299866855L244.8970346711576,500.60495493002236L424.85452470369637,479.3707248196006Z" fill="#e6e89b" stroke="#e6e89b"></path><path d="M367.24794840440154,334.65384299866855L424.85452470369637,479.3707248196006L553.5374097526073,316.8485850468278Z" fill="#fef6aa" stroke="#fef6aa"></path><path d="M553.5374097526073,316.8485850468278L424.85452470369637,479.3707248196006L520.7816471345723,479.78821193799376Z" fill="#ecf9b0" stroke="#ecf9b0"></path><path d="M553.5374097526073,316.8485850468278L520.7816471345723,479.78821193799376L679.6786030288786,422.9085357673466Z" fill="#f1ffb7" stroke="#f1ffb7"></path><path d="M679.6786030288786,422.9085357673466L520.7816471345723,479.78821193799376L724.3258167430758,523.9546042867005Z" fill="#d1f9b2" stroke="#d1f9b2"></path><path d="M679.6786030288786,422.9085357673466L724.3258167430758,523.9546042867005L860.7065361645073,412.90223733522Z" fill="#d4faa5" stroke="#d4faa5"></path><path d="M860.7065361645073,412.90223733522L724.3258167430758,523.9546042867005L830.4720517806709,556.5179523266852Z" fill="#b0e7ab" stroke="#b0e7ab"></path><path d="M860.7065361645073,412.90223733522L830.4720517806709,556.5179523266852L920.6517302524298,544.5682700537145Z" fill="#9fdeac" stroke="#9fdeac"></path><path d="M860.7065361645073,412.90223733522L920.6517302524298,544.5682700537145L1067.9779182840139,531.2955002859235Z" fill="#93daaa" stroke="#93daaa"></path><path d="M860.7065361645073,412.90223733522L1067.9779182840139,531.2955002859235L926.6755078174174,316.0044729709625Z" fill="#b8e8a5" stroke="#b8e8a5"></path><path d="M926.6755078174174,316.0044729709625L1067.9779182840139,531.2955002859235L1163.7134667858481,362.54629097878933Z" fill="#a3d3b0" stroke="#a3d3b0"></path><path d="M1163.7134667858481,362.54629097878933L1067.9779182840139,531.2955002859235L1227.3982735164464,473.44129853881896Z" fill="#73beba" stroke="#73beba"></path><path d="M1163.7134667858481,362.54629097878933L1227.3982735164464,473.44129853881896L1235.341942794621,382.75902866385877Z" fill="#77b3c1" stroke="#77b3c1"></path><path d="M1235.341942794621,382.75902866385877L1227.3982735164464,473.44129853881896L1475.8717990480363,428.0050624720752Z" fill="#6b9ecc" stroke="#6b9ecc"></path><path d="M1475.8717990480363,428.0050624720752L1227.3982735164464,473.44129853881896L1413.8133054412901,573.7044145166874Z" fill="#4c86d7" stroke="#4c86d7"></path><path d="M1475.8717990480363,428.0050624720752L1413.8133054412901,573.7044145166874L1415.5823559779674,651.4052010700107Z" fill="#255ced" stroke="#255ced"></path><path d="M1475.8717990480363,428.0050624720752L1415.5823559779674,651.4052010700107L1396.1277678329498,878.9656953234226Z" fill="#002bff" stroke="#002bff"></path><path d="M-30.4003229085356,474.01733030565083L-129.11266590468585,695.5522753950208L35.604740185663104,506.6338964179158Z" fill="#866996" stroke="#866996"></path><path d="M35.604740185663104,506.6338964179158L-129.11266590468585,695.5522753950208L18.91139779239893,705.5897908844054Z" fill="#6847a7" stroke="#6847a7"></path><path d="M35.604740185663104,506.6338964179158L18.91139779239893,705.5897908844054L229.8448335751891,638.9491799008101Z" fill="#7569a9" stroke="#7569a9"></path><path d="M35.604740185663104,506.6338964179158L229.8448335751891,638.9491799008101L244.8970346711576,500.60495493002236Z" fill="#a39a99" stroke="#a39a99"></path><path d="M244.8970346711576,500.60495493002236L229.8448335751891,638.9491799008101L421.5405699145049,665.5806060042232Z" fill="#829db6" stroke="#829db6"></path><path d="M244.8970346711576,500.60495493002236L421.5405699145049,665.5806060042232L424.85452470369637,479.3707248196006Z" fill="#a6c5b1" stroke="#a6c5b1"></path><path d="M424.85452470369637,479.3707248196006L421.5405699145049,665.5806060042232L488.85916323401034,638.0794736277312Z" fill="#88b7c8" stroke="#88b7c8"></path><path d="M424.85452470369637,479.3707248196006L488.85916323401034,638.0794736277312L520.7816471345723,479.78821193799376Z" fill="#b1d8bc" stroke="#b1d8bc"></path><path d="M520.7816471345723,479.78821193799376L488.85916323401034,638.0794736277312L724.3258167430758,523.9546042867005Z" fill="#a6d8cb" stroke="#a6d8cb"></path><path d="M724.3258167430758,523.9546042867005L488.85916323401034,638.0794736277312L657.1537328045815,717.9043240193278Z" fill="#7cb0d9" stroke="#7cb0d9"></path><path d="M724.3258167430758,523.9546042867005L657.1537328045815,717.9043240193278L830.4720517806709,556.5179523266852Z" fill="#79bac8" stroke="#79bac8"></path><path d="M830.4720517806709,556.5179523266852L657.1537328045815,717.9043240193278L851.3553939945996,717.0966061390936Z" fill="#6e97cb" stroke="#6e97cb"></path><path d="M830.4720517806709,556.5179523266852L851.3553939945996,717.0966061390936L920.6517302524298,544.5682700537145Z" fill="#5dacc7" stroke="#5dacc7"></path><path d="M920.6517302524298,544.5682700537145L851.3553939945996,717.0966061390936L1018.3227042295039,666.689262650907Z" fill="#4f95ca" stroke="#4f95ca"></path><path d="M920.6517302524298,544.5682700537145L1018.3227042295039,666.689262650907L1067.9779182840139,531.2955002859235Z" fill="#4da6c6" stroke="#4da6c6"></path><path d="M1067.9779182840139,531.2955002859235L1018.3227042295039,666.689262650907L1084.03358688578,640.8275037724525Z" fill="#2d8bd4" stroke="#2d8bd4"></path><path d="M1067.9779182840139,531.2955002859235L1084.03358688578,640.8275037724525L1227.3982735164464,473.44129853881896Z" fill="#409dcb" stroke="#409dcb"></path><path d="M1227.3982735164464,473.44129853881896L1084.03358688578,640.8275037724525L1317.559768287465,646.5363688766956Z" fill="#1179df" stroke="#1179df"></path><path d="M1227.3982735164464,473.44129853881896L1317.559768287465,646.5363688766956L1413.8133054412901,573.7044145166874Z" fill="#1c6de5" stroke="#1c6de5"></path><path d="M1413.8133054412901,573.7044145166874L1317.559768287465,646.5363688766956L1415.5823559779674,651.4052010700107Z" fill="#0043fa" stroke="#0043fa"></path><path d="M-129.11266590468585,695.5522753950208L-51.79595754481852,865.8535326551646L18.91139779239893,705.5897908844054Z" fill="#6514a6" stroke="#6514a6"></path><path d="M18.91139779239893,705.5897908844054L-51.79595754481852,865.8535326551646L78.8751007989049,852.0736060291529Z" fill="#6c22a8" stroke="#6c22a8"></path><path d="M18.91139779239893,705.5897908844054L78.8751007989049,852.0736060291529L172.08901173435152,828.5340306535363Z" fill="#7432aa" stroke="#7432aa"></path><path d="M18.91139779239893,705.5897908844054L172.08901173435152,828.5340306535363L229.8448335751891,638.9491799008101Z" fill="#793eab" stroke="#793eab"></path><path d="M229.8448335751891,638.9491799008101L172.08901173435152,828.5340306535363L392.5808927882463,841.2518606800586Z" fill="#7f58b6" stroke="#7f58b6"></path><path d="M229.8448335751891,638.9491799008101L392.5808927882463,841.2518606800586L421.5405699145049,665.5806060042232Z" fill="#7f70c1" stroke="#7f70c1"></path><path d="M421.5405699145049,665.5806060042232L392.5808927882463,841.2518606800586L494.03398116119206,789.982797363773Z" fill="#7f75ce" stroke="#7f75ce"></path><path d="M421.5405699145049,665.5806060042232L494.03398116119206,789.982797363773L488.85916323401034,638.0794736277312Z" fill="#7f86d2" stroke="#7f86d2"></path><path d="M488.85916323401034,638.0794736277312L494.03398116119206,789.982797363773L657.1537328045815,717.9043240193278Z" fill="#8084dd" stroke="#8084dd"></path><path d="M657.1537328045815,717.9043240193278L494.03398116119206,789.982797363773L622.3552719969302,862.7576005272567Z" fill="#7e7fdc" stroke="#7e7fdc"></path><path d="M657.1537328045815,717.9043240193278L622.3552719969302,862.7576005272567L868.7896924931556,860.9490047860891Z" fill="#767cd0" stroke="#767cd0"></path><path d="M657.1537328045815,717.9043240193278L868.7896924931556,860.9490047860891L851.3553939945996,717.0966061390936Z" fill="#6b77cb" stroke="#6b77cb"></path><path d="M851.3553939945996,717.0966061390936L868.7896924931556,860.9490047860891L988.3239880297333,818.4347403421998Z" fill="#556eca" stroke="#556eca"></path><path d="M851.3553939945996,717.0966061390936L988.3239880297333,818.4347403421998L1018.3227042295039,666.689262650907Z" fill="#4968cb" stroke="#4968cb"></path><path d="M1018.3227042295039,666.689262650907L988.3239880297333,818.4347403421998L1161.9651130121201,793.9513203408569Z" fill="#2d53d6" stroke="#2d53d6"></path><path d="M1018.3227042295039,666.689262650907L1161.9651130121201,793.9513203408569L1084.03358688578,640.8275037724525Z" fill="#245ada" stroke="#245ada"></path><path d="M1084.03358688578,640.8275037724525L1161.9651130121201,793.9513203408569L1317.559768287465,646.5363688766956Z" fill="#0949e5" stroke="#0949e5"></path><path d="M1317.559768287465,646.5363688766956L1161.9651130121201,793.9513203408569L1300.1089283823967,860.9922138322145Z" fill="#0029ed" stroke="#0029ed"></path><path d="M1317.559768287465,646.5363688766956L1300.1089283823967,860.9922138322145L1415.5823559779674,651.4052010700107Z" fill="#001cf6" stroke="#001cf6"></path><path d="M1415.5823559779674,651.4052010700107L1300.1089283823967,860.9922138322145L1396.1277678329498,878.9656953234226Z" fill="#0013f9" stroke="#0013f9"></path><path d="M-51.79595754481852,865.8535326551646L1396.1277678329498,878.9656953234226L622.3552719969302,862.7576005272567Z" fill="#7a7dd6" stroke="#7a7dd6"></path><path d="M-51.79595754481852,865.8535326551646L622.3552719969302,862.7576005272567L78.8751007989049,852.0736060291529Z" fill="#7e4db0" stroke="#7e4db0"></path><path d="M78.8751007989049,852.0736060291529L622.3552719969302,862.7576005272567L392.5808927882463,841.2518606800586Z" fill="#7f6ec4" stroke="#7f6ec4"></path><path d="M78.8751007989049,852.0736060291529L392.5808927882463,841.2518606800586L172.08901173435152,828.5340306535363Z" fill="#7e4db0" stroke="#7e4db0"></path><path d="M392.5808927882463,841.2518606800586L622.3552719969302,862.7576005272567L494.03398116119206,789.982797363773Z" fill="#807bd7" stroke="#807bd7"></path><path d="M622.3552719969302,862.7576005272567L1396.1277678329498,878.9656953234226L868.7896924931556,860.9490047860891Z" fill="#4766cc" stroke="#4766cc"></path><path d="M868.7896924931556,860.9490047860891L1396.1277678329498,878.9656953234226L1300.1089283823967,860.9922138322145Z" fill="#0938e5" stroke="#0938e5"></path><path d="M868.7896924931556,860.9490047860891L1300.1089283823967,860.9922138322145L988.3239880297333,818.4347403421998Z" fill="#2e54d6" stroke="#2e54d6"></path><path d="M988.3239880297333,818.4347403421998L1300.1089283823967,860.9922138322145L1161.9651130121201,793.9513203408569Z" fill="#1340e1" stroke="#1340e1"></path></g></svg>